<?xml version="1.0" encoding="UTF-8"?>
<svg version="1.1" xmlns="http://www.w3.org/2000/svg" width="1024" height="1024">
<path d="M0 0 C337.92 0 675.84 0 1024 0 C1024 337.92 1024 675.84 1024 1024 C686.08 1024 348.16 1024 0 1024 C0 686.08 0 348.16 0 0 Z " fill="#EEEEEE" transform="translate(0,0)"/>
<path d="M0 0 C0.70125 0.53625 1.4025 1.0725 2.125 1.625 C3.61 1.13 3.61 1.13 5.125 0.625 C30.34471956 -1.42730895 53.36979595 13.63795158 71.875 29.1875 C96.85556911 50.56489433 114.48195918 79.65128511 122.125 111.625 C122.38966064 112.71603027 122.38966064 112.71603027 122.65966797 113.82910156 C128.28950484 138.36827158 126.11556504 165.80184783 120.96484375 190.203125 C120.67818848 191.56872559 120.67818848 191.56872559 120.38574219 192.96191406 C120.01559284 194.68150054 119.6281111 196.39748924 119.21972656 198.10839844 C118.10802143 203.08291391 118.28002374 205.76912497 120.125 210.625 C120.34054207 213.46343713 120.45832081 216.16530744 120.4375 219 C120.43331055 219.78584473 120.42912109 220.57168945 120.42480469 221.38134766 C119.98980587 244.42240202 111.0777425 269.36791916 94.796875 286.00390625 C89.81572431 290.61394472 86.14077931 293.625 79.125 293.625 C79.03347656 294.91277344 78.94195313 296.20054687 78.84765625 297.52734375 C78.25430686 302.80970118 76.60752637 307.30922989 74.5625 312.1875 C74.2104248 313.04722412 73.85834961 313.90694824 73.49560547 314.79272461 C69.68620259 323.94289344 65.63602778 333.35845833 60.125 341.625 C59.67968834 345.08576434 59.79301107 348.57624024 59.8125 352.0625 C59.81741455 353.09366943 59.8223291 354.12483887 59.82739258 355.18725586 C60.03820641 369.268539 62.59554144 382.72322908 65.625 396.4375 C65.82633545 397.35088135 66.0276709 398.2642627 66.23510742 399.20532227 C66.81217835 401.69577797 67.45593173 404.1579256 68.125 406.625 C68.43050781 407.86765625 68.73601562 409.1103125 69.05078125 410.390625 C72.3608915 415.55215285 77.31727787 417.16259653 82.8125 419.5625 C85.10592443 420.610983 87.39889434 421.66046078 89.69140625 422.7109375 C90.80402832 423.21206055 91.91665039 423.71318359 93.06298828 424.22949219 C96.84420926 425.95277867 100.55124504 427.7955512 104.25 429.6875 C106.17556343 430.65377729 108.10313075 431.6159799 110.03076172 432.578125 C111.49984272 433.31249424 112.96749648 434.04972227 114.43408203 434.7890625 C142.12813783 448.68251112 171.24592462 459.46322949 200.30241394 470.11965942 C334.13405054 519.20582106 334.13405054 519.20582106 357.125 567.625 C366.49987098 588.89322583 370.44959998 611.82121064 374.125 634.625 C374.32061523 635.82737305 374.51623047 637.02974609 374.71777344 638.26855469 C381.86324751 683.22202799 385.23935041 728.9131098 389.0625 774.25 C389.17013672 775.51303955 389.27777344 776.7760791 389.38867188 778.07739258 C389.69097079 781.6474771 389.98568767 785.21809442 390.27734375 788.7890625 C390.36447128 789.81726105 390.45159882 790.84545959 390.54136658 791.90481567 C391.09658173 798.8785538 391.125 805.57774098 391.125 812.625 C136.365 812.625 -118.395 812.625 -380.875 812.625 C-379.74995328 799.1244394 -379.74995328 799.1244394 -378.86279297 794.17431641 C-378.56606186 792.49563225 -378.56606186 792.49563225 -378.26333618 790.78303528 C-378.05010712 789.60939926 -377.83687805 788.43576324 -377.6171875 787.2265625 C-377.39340424 785.97006393 -377.16962097 784.71356537 -376.9390564 783.41899109 C-376.33974771 780.05543899 -375.73356475 776.69316264 -375.12568665 773.33115005 C-374.62006152 770.53019408 -374.11829118 767.7285532 -373.61654663 764.92689991 C-372.26297725 757.3689728 -370.90000145 749.81277551 -369.53234863 742.25738525 C-368.94836075 739.03037774 -368.36588755 735.80310271 -367.78417969 732.57568359 C-364.49413866 714.33930311 -361.04717051 696.14039187 -357.35839844 677.98022461 C-356.04463157 671.50815016 -354.75062213 665.03721024 -353.5703125 658.5390625 C-344.63959346 609.42191196 -325.68558987 569.09780396 -283.76318359 539.93212891 C-283.14008301 539.50077637 -282.51698242 539.06942383 -281.875 538.625 C-281.02349365 538.02244385 -281.02349365 538.02244385 -280.15478516 537.40771484 C-268.96459134 529.5027757 -257.057823 522.7097157 -245.24984741 515.78346252 C-241.17278092 513.39122127 -237.10526972 510.98364803 -233.04296875 508.56640625 C-222.05233005 502.02680503 -211.03319619 495.54737197 -199.9375 489.1875 C-184.35187124 480.24041429 -169.00717519 470.90854382 -153.73046875 461.4453125 C-152.95541992 460.96537842 -152.18037109 460.48544434 -151.38183594 459.9909668 C-149.88496901 459.04352322 -148.40205964 458.07363697 -146.93457031 457.08129883 C-142.54644584 454.13287688 -138.27151657 451.90228363 -133.37890625 449.87890625 C-126.24887128 446.60096091 -120.04346929 443.50703774 -115.875 436.625 C-112.1983531 423.53860562 -114.42390054 408.49125322 -115.66998291 395.1625061 C-115.86617477 392.7342303 -115.97417025 390.3223969 -116.04052734 387.88745117 C-116.06478287 387.15949341 -116.08903839 386.43153564 -116.11402893 385.68151855 C-116.17127359 383.75701169 -116.21008266 381.83198045 -116.24731445 379.90698242 C-117.43580159 373.69273406 -122.1480381 370.40796803 -126.875 366.625 C-128.55788914 364.97471527 -130.22602615 363.30917362 -131.875 361.625 C-132.46925781 361.05394531 -133.06351563 360.48289062 -133.67578125 359.89453125 C-135.11304584 358.50926073 -136.49592884 357.068214 -137.875 355.625 C-137.875 354.965 -137.875 354.305 -137.875 353.625 C-138.865 353.295 -139.855 352.965 -140.875 352.625 C-142.26953125 350.83984375 -142.26953125 350.83984375 -143.6875 348.5625 C-145.60502718 345.549243 -147.56623693 342.71229556 -149.8125 339.9375 C-153.34060315 335.31670349 -155.77237985 330.15704896 -158.27734375 324.94140625 C-159.48303729 322.43863408 -160.74107132 320.00325651 -162.0625 317.5625 C-166.10410469 309.4444492 -168.26432542 300.63245011 -168.875 291.625 C-170.1125 291.5940625 -170.1125 291.5940625 -171.375 291.5625 C-178.99282083 289.52201228 -185.2453046 282.15184376 -189.12915039 275.46606445 C-190.43656432 272.9601237 -191.67013461 270.43183099 -192.875 267.875 C-193.31070313 266.95485107 -193.74640625 266.03470215 -194.1953125 265.08666992 C-198.13469072 256.50982381 -200.84135793 247.82536102 -202.875 238.625 C-203.05828857 237.84382812 -203.24157715 237.06265625 -203.43041992 236.2578125 C-204.78741436 230.11911417 -205.10638606 224.26982789 -205.1875 218 C-205.42054142 209.58500877 -206.60663404 202.56534364 -209.62109375 194.71875 C-213.37478873 183.79381686 -213.31752344 171.75201643 -213.3125 160.3125 C-213.31360275 159.20790436 -213.31360275 159.20790436 -213.31472778 158.08099365 C-213.27853955 144.16408774 -211.63363365 131.06640815 -207.875 117.625 C-207.63394531 116.75810547 -207.39289063 115.89121094 -207.14453125 114.99804688 C-194.37314683 70.97393603 -162.4078415 35.35613635 -122.94018555 13.18334961 C-91.86299327 -3.68334737 -31.62680534 -26.12649137 0 0 Z " fill="#5A5E8D" transform="translate(532.875,211.375)"/>
<path d="M0 0 C0.70125 0.53625 1.4025 1.0725 2.125 1.625 C3.115 1.295 4.105 0.965 5.125 0.625 C30.34471956 -1.42730895 53.36979595 13.63795158 71.875 29.1875 C96.85556911 50.56489433 114.48195918 79.65128511 122.125 111.625 C122.38966064 112.71603027 122.38966064 112.71603027 122.65966797 113.82910156 C128.28950484 138.36827158 126.11556504 165.80184783 120.96484375 190.203125 C120.67818848 191.56872559 120.67818848 191.56872559 120.38574219 192.96191406 C120.01559284 194.68150054 119.6281111 196.39748924 119.21972656 198.10839844 C118.10802143 203.08291391 118.28002374 205.76912497 120.125 210.625 C120.34054207 213.46343713 120.45832081 216.16530744 120.4375 219 C120.43331055 219.78584473 120.42912109 220.57168945 120.42480469 221.38134766 C119.98980587 244.42240202 111.0777425 269.36791916 94.796875 286.00390625 C89.81572431 290.61394472 86.14077931 293.625 79.125 293.625 C79.03347656 294.91277344 78.94195313 296.20054687 78.84765625 297.52734375 C78.25430686 302.80970118 76.60752637 307.30922989 74.5625 312.1875 C74.2104248 313.04722412 73.85834961 313.90694824 73.49560547 314.79272461 C69.68620259 323.94289344 65.63602778 333.35845833 60.125 341.625 C59.67968834 345.08576434 59.79301107 348.57624024 59.8125 352.0625 C59.81741455 353.09366943 59.8223291 354.12483887 59.82739258 355.18725586 C59.97732372 365.20188698 61.19886881 374.80992724 63.125 384.625 C63.30192383 385.5423291 63.47884766 386.4596582 63.66113281 387.40478516 C65.48301887 396.63535987 67.31235709 405.44398642 71.4375 413.9375 C77.84452285 427.91344105 73.64003122 442.69247791 69.125 456.625 C68.89506348 457.33575684 68.66512695 458.04651367 68.42822266 458.77880859 C59.15907699 486.67808426 41.75911172 509.92664457 15.359375 523.62890625 C-1.44005495 531.95071401 -19.95130715 537.59937706 -38.7578125 537.8984375 C-39.85061775 537.91722961 -39.85061775 537.91722961 -40.96549988 537.93640137 C-57.48820142 538.16553431 -73.02649637 537.90783454 -88.875 532.625 C-89.59929199 532.38442871 -90.32358398 532.14385742 -91.06982422 531.89599609 C-99.1996654 529.09590526 -106.74436837 525.44336856 -113.875 520.625 C-115.2671875 519.696875 -115.2671875 519.696875 -116.6875 518.75 C-123.08400301 512.53625422 -125.03052186 506.23277752 -125.3125 497.5 C-125.4565328 485.17660661 -122.75275496 473.0506394 -120.48046875 460.9921875 C-120.34940231 460.29157196 -120.21833588 459.59095642 -120.08329773 458.86911011 C-119.44495864 455.49161976 -118.76590206 452.13743567 -118.01513672 448.78222656 C-115.76615081 438.30651151 -115.47692765 428.19459342 -115.59375 417.49804688 C-115.62495897 414.62877225 -115.63474904 411.76005303 -115.640625 408.890625 C-115.65824918 404.31333555 -115.72024482 399.7387291 -115.81994629 395.1625061 C-115.85582515 393.50879667 -115.88597454 391.85494993 -115.9095459 390.20101929 C-115.94634363 388.00096197 -116.01442887 385.80435137 -116.09375 383.60546875 C-116.12919922 382.38496826 -116.16464844 381.16446777 -116.20117188 379.90698242 C-117.47388797 373.70802501 -122.13830836 370.4157547 -126.875 366.625 C-128.55788914 364.97471527 -130.22602615 363.30917362 -131.875 361.625 C-132.76638672 360.76841797 -132.76638672 360.76841797 -133.67578125 359.89453125 C-135.11304584 358.50926073 -136.49592884 357.068214 -137.875 355.625 C-137.875 354.965 -137.875 354.305 -137.875 353.625 C-138.865 353.295 -139.855 352.965 -140.875 352.625 C-142.26953125 350.83984375 -142.26953125 350.83984375 -143.6875 348.5625 C-145.60502718 345.549243 -147.56623693 342.71229556 -149.8125 339.9375 C-153.34060315 335.31670349 -155.77237985 330.15704896 -158.27734375 324.94140625 C-159.48303729 322.43863408 -160.74107132 320.00325651 -162.0625 317.5625 C-166.10410469 309.4444492 -168.26432542 300.63245011 -168.875 291.625 C-170.1125 291.5940625 -170.1125 291.5940625 -171.375 291.5625 C-178.99282083 289.52201228 -185.2453046 282.15184376 -189.12915039 275.46606445 C-190.43656432 272.9601237 -191.67013461 270.43183099 -192.875 267.875 C-193.31070312 266.95485107 -193.74640625 266.03470215 -194.1953125 265.08666992 C-198.13469072 256.50982381 -200.84135793 247.82536102 -202.875 238.625 C-203.05828857 237.84382812 -203.24157715 237.06265625 -203.43041992 236.2578125 C-204.78741436 230.11911417 -205.10638606 224.26982789 -205.1875 218 C-205.42054142 209.58500877 -206.60663404 202.56534364 -209.62109375 194.71875 C-213.37478873 183.79381686 -213.31752344 171.75201643 -213.3125 160.3125 C-213.31323517 159.57610291 -213.31397034 158.83970581 -213.31472778 158.08099365 C-213.27853955 144.16408774 -211.63363365 131.06640815 -207.875 117.625 C-207.51341797 116.3246582 -207.51341797 116.3246582 -207.14453125 114.99804688 C-194.37314683 70.97393603 -162.4078415 35.35613635 -122.94018555 13.18334961 C-91.86299327 -3.68334737 -31.62680534 -26.12649137 0 0 Z " fill="#FEC0B9" transform="translate(532.875,211.375)"/>
<path d="M0 0 C0.70125 0.53625 1.4025 1.0725 2.125 1.625 C3.115 1.295 4.105 0.965 5.125 0.625 C30.34471956 -1.42730895 53.36979595 13.63795158 71.875 29.1875 C96.85556911 50.56489433 114.48195918 79.65128511 122.125 111.625 C122.38966064 112.71603027 122.38966064 112.71603027 122.65966797 113.82910156 C129.20212535 142.34617548 125.42578867 173.68187991 118.125 201.625 C117.58230469 201.21507812 117.03960938 200.80515625 116.48046875 200.3828125 C115.76503906 199.84398437 115.04960938 199.30515625 114.3125 198.75 C113.60480469 198.21632813 112.89710938 197.68265625 112.16796875 197.1328125 C108.17922043 194.18891795 106.13872954 192.92307786 101.125 193.625 C93.54451425 199.41010755 88.35092403 209.11273127 83.25390625 217.04296875 C82.88136719 217.56503906 82.50882813 218.08710938 82.125 218.625 C81.795 218.625 81.465 218.625 81.125 218.625 C80.97804688 217.46226562 80.83109375 216.29953125 80.6796875 215.1015625 C76.31061606 182.97822702 61.83238274 161.86859752 40.125 138.625 C38.66266309 137.00360188 37.20419798 135.37870174 35.75 133.75 C29.96056154 127.29619975 24.03691113 120.9663699 18.125 114.625 C17.91746094 115.45902344 17.70992187 116.29304688 17.49609375 117.15234375 C15.32492943 125.08299835 12.69763358 130.60425774 7.125 136.625 C6.55136719 137.30046875 5.97773437 137.9759375 5.38671875 138.671875 C-0.83494853 145.54635106 -10.51544228 152.37353371 -19.875 153.625 C-19.27391424 147.97479382 -17.79971317 142.96335539 -15.875 137.625 C-16.31328125 138.13289062 -16.7515625 138.64078125 -17.203125 139.1640625 C-22.69667651 145.12657573 -28.45331894 148.46556951 -35.875 151.625 C-36.93267578 152.08519531 -36.93267578 152.08519531 -38.01171875 152.5546875 C-52.76393792 158.17734078 -70.3061394 158.84462343 -85.875 158.625 C-86.37 155.16 -86.37 155.16 -86.875 151.625 C-87.58027832 152.11311157 -87.58027832 152.11311157 -88.29980469 152.61108398 C-93.39323217 155.98407869 -98.26432662 158.03188314 -104.125 159.6875 C-104.97964844 159.9364502 -105.83429688 160.18540039 -106.71484375 160.44189453 C-128.5610191 166.625 -128.5610191 166.625 -138.875 166.625 C-139.12107634 159.03764605 -138.6323057 151.91639899 -137.3125 144.4375 C-136.77252866 141.44064308 -136.77252866 141.44064308 -136.875 137.625 C-137.42027344 138.66398438 -137.96554687 139.70296875 -138.52734375 140.7734375 C-145.55963653 153.89460909 -153.08886633 165.76560722 -168 170.3125 C-168.78632813 170.52261719 -169.57265625 170.73273438 -170.3828125 170.94921875 C-171.20523438 171.17222656 -172.02765625 171.39523437 -172.875 171.625 C-173.86894775 171.82939697 -174.86289551 172.03379395 -175.88696289 172.24438477 C-179.13940294 173.3585213 -179.13940294 173.3585213 -180.2746582 176.60253906 C-180.57202881 177.85260742 -180.86939941 179.10267578 -181.17578125 180.390625 C-181.34248825 181.06164246 -181.50919525 181.73265991 -181.68095398 182.42401123 C-182.20755922 184.56927744 -182.69754009 186.72110252 -183.1875 188.875 C-183.5347871 190.30915809 -183.88437275 191.74276165 -184.23632812 193.17578125 C-186.904962 204.04923274 -186.904962 204.04923274 -188.19140625 215.1484375 C-188.23330078 215.94121094 -188.27519531 216.73398437 -188.31835938 217.55078125 C-188.35767578 218.35902344 -188.39699219 219.16726563 -188.4375 220 C-188.48068359 220.83144531 -188.52386719 221.66289062 -188.56835938 222.51953125 C-188.67361805 224.55453228 -188.77473072 226.58974703 -188.875 228.625 C-202.71678497 218.31676929 -209.70833015 201.16238655 -212.19189453 184.4987793 C-214.75802824 162.23023421 -213.91410902 139.22171222 -207.875 117.625 C-207.51341797 116.3246582 -207.51341797 116.3246582 -207.14453125 114.99804688 C-194.37314683 70.97393603 -162.4078415 35.35613635 -122.94018555 13.18334961 C-91.86299327 -3.68334737 -31.62680534 -26.12649137 0 0 Z " fill="#2C2C45" transform="translate(532.875,211.375)"/>
<path d="M0 0 C0.66 0 1.32 0 2 0 C2 44.22 2 88.44 2 134 C-1.3 134 -4.6 134 -8 134 C-6.1763731 90.83105708 -6.1763731 90.83105708 -4.75048828 72.55126953 C-3.96710211 62.25119209 -3.48484087 51.94243278 -3 41.625 C-2.34509918 27.70990132 -1.49354094 13.85497555 0 0 Z " fill="#474C72" transform="translate(760,890)"/>
<path d="M0 0 C0.66 0 1.32 0 2 0 C2.70779659 6.36824472 3.17956521 12.68070524 3.31640625 19.0859375 C3.33723267 19.95344635 3.35805908 20.8209552 3.3795166 21.7147522 C3.44593693 24.60141121 3.50490592 27.48815208 3.5625 30.375 C3.58367889 31.37692383 3.60485779 32.37884766 3.62667847 33.41113281 C4.26281814 64.26857338 4.09195098 95.13783239 4 126 C2.02 126 0.04 126 -2 126 C-2.10657427 97.87116031 -2.10598396 69.7497136 -1.5625 41.625 C-1.54285187 40.55737427 -1.52320374 39.48974854 -1.50296021 38.38977051 C-1.26179074 25.57319412 -0.81929926 12.79313176 0 0 Z " fill="#474C73" transform="translate(246,898)"/>
<path d="M0 0 C1.25955235 2.51910471 0.8363281 3.25496264 0.1328125 5.93359375 C-1.14178618 11.27941055 -1.66080734 16.59491923 -2.125 22.0625 C-2.21136719 23.02349609 -2.29773438 23.98449219 -2.38671875 24.97460938 C-2.59639503 27.31599448 -2.8007244 29.65771078 -3 32 C-3.66 32 -4.32 32 -5 32 C-5 27 -5 22 -5 17 C-7.0245738 18.93254772 -8.42105792 20.63158688 -10 23 C-11.11426751 24.05519791 -12.2629377 25.07485729 -13.4375 26.0625 C-14.03433594 26.56910156 -14.63117188 27.07570313 -15.24609375 27.59765625 C-17 29 -17 29 -20 31 C-18.6701971 28.04488244 -17.20586073 26.0451735 -14.9375 23.75 C-9.84131312 18.1077931 -6.49907787 11.35041043 -2.94213867 4.68237305 C-2.0414742 3.0740603 -1.02249565 1.53374347 0 0 Z " fill="#F4D4D4" transform="translate(397,346)"/>
<path d="M0 0 C1.485 0.99 1.485 0.99 3 2 C3.28004467 5.09257554 3.37135702 7.98173648 3.328125 11.07421875 C3.32625183 11.99024368 3.32437866 12.90626862 3.32244873 13.85005188 C3.31571069 15.79956675 3.30176176 17.74906772 3.28125 19.69848633 C3.25059589 22.63050423 3.2403251 25.56197965 3.234375 28.49414062 C3.13637932 52.72511862 3.13637932 52.72511862 2 60 C1.01 60.495 1.01 60.495 0 61 C0 40.87 0 20.74 0 0 Z " fill="#F4B7B2" transform="translate(417,589)"/>
<path d="M0 0 C1 2 1 2 0.00390625 5.2578125 C-0.46889984 6.5497052 -0.94971969 7.83868638 -1.4375 9.125 C-1.68048828 9.78371094 -1.92347656 10.44242187 -2.17382812 11.12109375 C-2.77578321 12.74991338 -3.38702412 14.37529575 -4 16 C-4.66 15.67 -5.32 15.34 -6 15 C-6.625 12.9375 -6.625 12.9375 -7 11 C-7.6496875 11.7115625 -7.6496875 11.7115625 -8.3125 12.4375 C-11.77068343 15.63952169 -15.53857929 15.08417775 -20 15 C-18.28945598 13.85963732 -16.55575167 12.74913949 -14.765625 11.73828125 C-8.99171212 8.46579957 -4.42263802 4.9498399 0 0 Z " fill="#EEC9C4" transform="translate(517,348)"/>
<path d="M0 0 C0 4.45351799 -1.55160412 7.32740617 -4 11 C-4.763125 11.12375 -5.52625 11.2475 -6.3125 11.375 C-11.03365574 12.47294319 -13.40804435 16.11206653 -16 20 C-16.99 20 -17.98 20 -19 20 C-19 18.68 -19 17.36 -19 16 C-17.12890625 14.39453125 -17.12890625 14.39453125 -14.5625 12.8125 C-8.99483235 9.1589663 -4.54417036 4.84052929 0 0 Z " fill="#F2CFCE" transform="translate(543,344)"/>
<path d="M0 0 C0 4.86229574 -0.00472413 7.89995825 -3.375 11.625 C-4.24125 12.40875 -5.1075 13.1925 -6 14 C-7.02813611 15.31175986 -8.04084432 16.6369893 -9 18 C-9 17.34 -9 16.68 -9 16 C-9.66 15.67 -10.32 15.34 -11 15 C-9.54420484 12.87322106 -8.08549775 10.7485458 -6.625 8.625 C-6.2125 8.02171875 -5.8 7.4184375 -5.375 6.796875 C-3.6977605 4.36217249 -2.09532229 2.09532229 0 0 Z " fill="#212135" transform="translate(356,270)"/>
<path d="M0 0 C2.42416079 2.98358251 4.79395639 6.00586193 7.125 9.0625 C7.62257813 9.71347656 8.12015625 10.36445313 8.6328125 11.03515625 C9.97080707 12.95804559 11.0088597 14.88084764 12 17 C8.6875 16.5 8.6875 16.5 5 15 C3.87418087 13.01804465 3.27915926 11.17393003 2.703125 8.97265625 C1.8875526 6.68452256 0.70584107 5.68208284 -1 4 C-0.6875 1.8125 -0.6875 1.8125 0 0 Z " fill="#F0D0CD" transform="translate(328,420)"/>
<path d="M0 0 C0.33 0 0.66 0 1 0 C0.48446121 6.49850211 -0.46667709 12.66226532 -2 19 C-4.31 17.02 -6.62 15.04 -9 13 C-7 12.33333333 -5 11.66666667 -3 11 C-1.96961044 8.43957934 -1.96961044 8.43957934 -1.3125 5.4375 C-1.06113281 4.42558594 -0.80976562 3.41367187 -0.55078125 2.37109375 C-0.36902344 1.58863281 -0.18726563 0.80617188 0 0 Z " fill="#1C1A2E" transform="translate(653,394)"/>
<path d="M0 0 C9.59453303 2.89066059 9.59453303 2.89066059 13 6 C9.44219804 5.39009109 6.3171411 4.4216319 3 3 C3.33 3.66 3.66 4.32 4 5 C4.08308638 6.37548156 4.10736016 7.75485796 4.09765625 9.1328125 C4.09282227 10.34130859 4.09282227 10.34130859 4.08789062 11.57421875 C4.07951172 12.41597656 4.07113281 13.25773438 4.0625 14.125 C4.05798828 14.97449219 4.05347656 15.82398438 4.04882812 16.69921875 C4.03702874 18.79950909 4.01909306 20.8997633 4 23 C3.67 23 3.34 23 3 23 C2.92652344 21.26363281 2.92652344 21.26363281 2.8515625 19.4921875 C2.77648522 17.9531033 2.70093957 16.4140419 2.625 14.875 C2.57859375 13.73417969 2.57859375 13.73417969 2.53125 12.5703125 C2.297631 8.05367842 1.67345883 4.25847653 0 0 Z " fill="#4D4B6E" transform="translate(604,626)"/>
<path d="M0 0 C1.98 1.65 3.96 3.3 6 5 C5.01 5 4.02 5 3 5 C2.67 4.67 2.34 4.34 2 4 C1.69255859 5.13888672 1.69255859 5.13888672 1.37890625 6.30078125 C1.10949219 7.29464844 0.84007812 8.28851563 0.5625 9.3125 C0.29566406 10.29863281 0.02882813 11.28476562 -0.24609375 12.30078125 C-0.78079425 14.21517526 -1.37144538 16.11433615 -2 18 C-3.32 17.67 -4.64 17.34 -6 17 C-5.38125 15.865625 -4.7625 14.73125 -4.125 13.5625 C-1.90992828 9.17163089 -0.8482631 4.82170604 0 0 Z " fill="#EBCED2" transform="translate(550,325)"/>
<path d="M0 0 C0.66 0.33 1.32 0.66 2 1 C2.625 4.0625 2.625 4.0625 3 7 C2.01 7.495 2.01 7.495 1 8 C0.60794432 10.29104269 0.60794432 10.29104269 0.5 12.9375 C0.22137405 17.77862595 0.22137405 17.77862595 -2 20 C-3.13879395 15.09790683 -2.71241384 11.50063468 -1.5625 6.625 C-1.13130859 4.75714844 -1.13130859 4.75714844 -0.69140625 2.8515625 C-0.46324219 1.91054688 -0.23507812 0.96953125 0 0 Z " fill="#ECB9BE" transform="translate(415,660)"/>
<path d="M0 0 C1.485 0.99 1.485 0.99 3 2 C3.2487793 4.15478516 3.2487793 4.15478516 3.07421875 6.7890625 C3.01943359 7.73007812 2.96464844 8.67109375 2.90820312 9.640625 C2.83537109 10.62546875 2.76253906 11.6103125 2.6875 12.625 C2.62626953 13.61757813 2.56503906 14.61015625 2.50195312 15.6328125 C2.34839342 18.08976785 2.18051265 20.54490157 2 23 C1.67 23 1.34 23 1 23 C-0.24911667 15.34916042 -0.09053426 7.72559014 0 0 Z " fill="#EDBCB7" transform="translate(417,589)"/>
<path d="M0 0 C0 0.66 0 1.32 0 2 C0.99 2.33 1.98 2.66 3 3 C1.0641649 3.36315666 -0.87375248 3.71522731 -2.8125 4.0625 C-3.89144531 4.25972656 -4.97039062 4.45695312 -6.08203125 4.66015625 C-9 5 -9 5 -12 4 C-12 3.34 -12 2.68 -12 2 C-10.7625 1.67 -9.525 1.34 -8.25 1 C-7.55390625 0.814375 -6.8578125 0.62875 -6.140625 0.4375 C-4 0 -4 0 0 0 Z " fill="#EFCBC9" transform="translate(406,376)"/>
<path d="M0 0 C0.33 0 0.66 0 1 0 C1 4.62 1 9.24 1 14 C2.65 14 4.3 14 6 14 C3 16 3 16 -1 16 C-1.02712153 14.083412 -1.04645097 12.1667127 -1.0625 10.25 C-1.07410156 9.18265625 -1.08570313 8.1153125 -1.09765625 7.015625 C-1.01510087 4.46631499 -0.74617558 2.42066409 0 0 Z " fill="#2E2538" transform="translate(395,362)"/>
<path d="M0 0 C0.33 1.32 0.66 2.64 1 4 C0.401875 4.103125 -0.19625 4.20625 -0.8125 4.3125 C-3.31258286 5.09824033 -4.37535082 5.96918853 -6 8 C-6 8.66 -6 9.32 -6 10 C-7.98 10 -9.96 10 -12 10 C-8.29909479 6.0747975 -4.45040344 3.05419844 0 0 Z " fill="#4E4E78" transform="translate(254,748)"/>
<path d="M0 0 C3.3 0 6.6 0 10 0 C9.34 0.66 8.68 1.32 8 2 C7.01 2 6.02 2 5 2 C5 2.66 5 3.32 5 4 C1.7 3.67 -1.6 3.34 -5 3 C-5 2.67 -5 2.34 -5 2 C-3.35 2 -1.7 2 0 2 C0 1.34 0 0.68 0 0 Z " fill="#F0B5AD" transform="translate(505,744)"/>
<path d="M0 0 C1 2 1 2 0.00390625 5.2578125 C-0.46889984 6.5497052 -0.94971969 7.83868638 -1.4375 9.125 C-1.68048828 9.78371094 -1.92347656 10.44242187 -2.17382812 11.12109375 C-2.77578321 12.74991338 -3.38702412 14.37529575 -4 16 C-5.22298482 11.81757863 -5.15412777 8.20309218 -4 4 C-1.9375 1.5 -1.9375 1.5 0 0 Z " fill="#E5D0D5" transform="translate(517,348)"/>
<path d="M0 0 C0.66 0.66 1.32 1.32 2 2 C1.75 4.0625 1.75 4.0625 1 7 C0.64220303 8.60336086 0.28825974 10.20758495 -0.0625 11.8125 C-0.37448212 13.20844918 -0.68680856 14.60432165 -1 16 C-1.33 16 -1.66 16 -2 16 C-1.85936865 13.70800823 -1.71234057 11.41640814 -1.5625 9.125 C-1.48128906 7.84882812 -1.40007812 6.57265625 -1.31640625 5.2578125 C-1 2 -1 2 0 0 Z " fill="#52517C" transform="translate(180,868)"/>
<path d="M0 0 C0.33 0.99 0.66 1.98 1 3 C0.21625 3.763125 -0.5675 4.52625 -1.375 5.3125 C-4.07257717 7.90891805 -4.07257717 7.90891805 -6 11 C-6.99 10.67 -7.98 10.34 -9 10 C-6.03 6.7 -3.06 3.4 0 0 Z " fill="#F5EAE3" transform="translate(634,489)"/>
<path d="M0 0 C0.66 0.33 1.32 0.66 2 1 C2 4.63 2 8.26 2 12 C1.01 11.34 0.02 10.68 -1 10 C-0.67 6.7 -0.34 3.4 0 0 Z " fill="#2E2438" transform="translate(342,428)"/>
<path d="M0 0 C0.33 0 0.66 0 1 0 C1.33 2.97 1.66 5.94 2 9 C1.34 9 0.68 9 0 9 C0 10.65 0 12.3 0 14 C-0.33 14 -0.66 14 -1 14 C-1.02694851 12.04174127 -1.04637218 10.08337774 -1.0625 8.125 C-1.07410156 7.03445313 -1.08570313 5.94390625 -1.09765625 4.8203125 C-1 2 -1 2 0 0 Z " fill="#201F32" transform="translate(322,345)"/>
<path d="M0 0 C0.33 0 0.66 0 1 0 C1 1.98 1 3.96 1 6 C-1.31 6.33 -3.62 6.66 -6 7 C-5.02433888 5.83040013 -4.044375 4.66438823 -3.0625 3.5 C-2.51722656 2.8503125 -1.97195312 2.200625 -1.41015625 1.53125 C-0.71212891 0.77328125 -0.71212891 0.77328125 0 0 Z " fill="#4F4E7A" transform="translate(229,768)"/>
<path d="M0 0 C0 3.66666667 0 7.33333333 0 11 C-2.83374881 7.79663178 -3.5205537 5.21912747 -4 1 C-2 0 -2 0 0 0 Z " fill="#E9B7C0" transform="translate(412,713)"/>
<path d="M0 0 C5.01113235 1.4317521 6.94469549 3.98445693 10 8 C7 8 7 8 5.375 6.625 C4 5 4 5 3 3 C2.01 3 1.02 3 0 3 C0 2.01 0 1.02 0 0 Z " fill="#232235" transform="translate(525,207)"/>
<path d="M0 0 C1.31223496 3.93670488 0.24296256 6.12488144 -1 10 C-1.66 10 -2.32 10 -3 10 C-3.36923077 4.58461538 -3.36923077 4.58461538 -1.5 1.625 C-1.005 1.08875 -0.51 0.5525 0 0 Z " fill="#F7C4C6" transform="translate(611,506)"/>
<path d="M0 0 C0.33 1.32 0.66 2.64 1 4 C-2.47325181 5.1577506 -5.36067448 5.06866652 -9 5 C-6.08596738 3.05731159 -3.14191424 1.53604696 0 0 Z " fill="#EECED0" transform="translate(506,358)"/>
<path d="M0 0 C-3.16240582 2.10827055 -4.50657469 2.33817465 -8.1875 2.625 C-9.53908203 2.73714844 -9.53908203 2.73714844 -10.91796875 2.8515625 C-11.94857422 2.92503906 -11.94857422 2.92503906 -13 3 C-8.02535093 -0.31643271 -6.03086207 -1.37065047 0 0 Z " fill="#191528" transform="translate(415,373)"/>
<path d="M0 0 C0.33 0.66 0.66 1.32 1 2 C-6.42857143 6.42857143 -6.42857143 6.42857143 -10 7 C-7.0094833 3.66442368 -4.06815373 1.84916079 0 0 Z " fill="#4C4E74" transform="translate(341,696)"/>
<path d="M0 0 C0.99 0.33 1.98 0.66 3 1 C1.35 3.64 -0.3 6.28 -2 9 C-2.33 8.34 -2.66 7.68 -3 7 C-2.06421005 4.64018187 -1.06652192 2.30368736 0 0 Z " fill="#E7BAC0" transform="translate(587,694)"/>
<path d="M0 0 C0.66 0 1.32 0 2 0 C3.6875 2.375 3.6875 2.375 5 5 C4.67 5.66 4.34 6.32 4 7 C2.02 6.01 0.04 5.02 -2 4 C-1.34 2.68 -0.68 1.36 0 0 Z " fill="#E4E4EB" transform="translate(574,216)"/>
<path d="M0 0 C1.86323318 0.25288812 3.71708432 0.57690153 5.5625 0.9375 C6.57441406 1.13214844 7.58632813 1.32679688 8.62890625 1.52734375 C9.80259766 1.76130859 9.80259766 1.76130859 11 2 C11 2.33 11 2.66 11 3 C7.37 3.33 3.74 3.66 0 4 C-0.33 3.01 -0.66 2.02 -1 1 C-0.67 0.67 -0.34 0.34 0 0 Z " fill="#F1B5AC" transform="translate(461,744)"/>
<path d="M0 0 C0.66 0.33 1.32 0.66 2 1 C-2.455 3.97 -2.455 3.97 -7 7 C-7.66 6.67 -8.32 6.34 -9 6 C-3.375 1.125 -3.375 1.125 0 0 Z " fill="#F3F5FD" transform="translate(262,741)"/>
<path d="M0 0 C0.99 0.33 1.98 0.66 3 1 C2.01 2.485 2.01 2.485 1 4 C0.01 4 -0.98 4 -2 4 C-2.33 4.99 -2.66 5.98 -3 7 C-3.66 6.67 -4.32 6.34 -5 6 C-3.35 4.02 -1.7 2.04 0 0 Z " fill="#EDD1D4" transform="translate(632,405)"/>
<path d="M0 0 C2 3.75 2 3.75 2 6 C1.34 6 0.68 6 0 6 C-0.33 8.64 -0.66 11.28 -1 14 C-1.33 14 -1.66 14 -2 14 C-1.85795259 12.41632253 -1.71119847 10.83306682 -1.5625 9.25 C-1.48128906 8.36828125 -1.40007812 7.4865625 -1.31640625 6.578125 C-1.03761535 4.30649548 -0.61209423 2.20148177 0 0 Z " fill="#E6E6E9" transform="translate(321,336)"/>
<path d="M0 0 C3.465 1.98 3.465 1.98 7 4 C6.34 4.66 5.68 5.32 5 6 C3.65737935 5.70630173 2.32303717 5.3721042 1 5 C0.01 5.495 0.01 5.495 -1 6 C-0.67 4.02 -0.34 2.04 0 0 Z " fill="#EAC2C1" transform="translate(551,328)"/>
<path d="M0 0 C0.66 0.33 1.32 0.66 2 1 C-1.96 4.465 -1.96 4.465 -6 8 C-6 5 -6 5 -4.6875 3.61328125 C-3.125 2.40885417 -1.5625 1.20442708 0 0 Z " fill="#1A182D" transform="translate(384,242)"/>
<path d="M0 0 C1.32 0 2.64 0 4 0 C4 0.66 4 1.32 4 2 C5.32 2.66 6.64 3.32 8 4 C7.01 4.495 7.01 4.495 6 5 C3.96855359 4.06553465 1.96466413 3.06775224 0 2 C0 1.34 0 0.68 0 0 Z " fill="#E2E3F0" transform="translate(760,690)"/>
<path d="M0 0 C1.74271938 2.297221 3.39911152 4.59866729 5 7 C4.67 7.99 4.34 8.98 4 10 C-0.60921053 4.64736842 -0.60921053 4.64736842 -1 1 C-0.67 0.67 -0.34 0.34 0 0 Z " fill="#F1C5C4" transform="translate(380,542)"/>
<path d="M0 0 C0.33 0.99 0.66 1.98 1 3 C0 4 0 4 -3.5625 4.0625 C-4.696875 4.041875 -5.83125 4.02125 -7 4 C-6 2 -6 2 -2.9375 0.875 C-1.4834375 0.441875 -1.4834375 0.441875 0 0 Z " fill="#EBC8C4" transform="translate(520,362)"/>
<path d="M0 0 C0 1.65 0 3.3 0 5 C-1.32 5.33 -2.64 5.66 -4 6 C-4 4.68 -4 3.36 -4 2 C-1 0 -1 0 0 0 Z " fill="#EEC8C5" transform="translate(528,358)"/>
<path d="M0 0 C1.33332095 2.6666419 0.67102033 4.16680303 0 7 C-0.66 7 -1.32 7 -2 7 C-2.33 7.99 -2.66 8.98 -3 10 C-4 7 -4 7 -3.22265625 5.17578125 C-2.1484375 3.45052083 -1.07421875 1.72526042 0 0 Z " fill="#D5C8D0" transform="translate(397,346)"/>
<path d="M0 0 C2.31 1.98 4.62 3.96 7 6 C6.34 6.66 5.68 7.32 5 8 C4.01 7.67 3.02 7.34 2 7 C0.8125 3.4375 0.8125 3.4375 0 0 Z " fill="#5C5780" transform="translate(411,724)"/>
<path d="M0 0 C2.31 0 4.62 0 7 0 C6.67 1.32 6.34 2.64 6 4 C4.02 3.01 2.04 2.02 0 1 C0 0.67 0 0.34 0 0 Z " fill="#E6E3F0" transform="translate(779,698)"/>
<path d="M0 0 C0 1.32 0 2.64 0 4 C-2.64 4.33 -5.28 4.66 -8 5 C-3.16129032 0 -3.16129032 0 0 0 Z " fill="#4C4D78" transform="translate(371,679)"/>
</svg>
